<svg width="158" height="41" viewBox="0 0 158 41" fill="none" xmlns="http://www.w3.org/2000/svg">
<path d="M0 0V41H39.9149V0H0ZM36.2189 37.0048H3.52102V3.86422H36.2189V37.0048Z" fill="black"/>
<path d="M77.8266 11.7668H74.7626V29.2348H77.8266V11.7668Z" fill="black"/>
<path d="M96.5838 11.845C91.8855 11.845 88.0413 15.7412 88.0413 20.5032C88.0413 25.2652 91.8855 29.1613 96.5838 29.1613H101.205C101.225 29.1613 101.244 29.1597 101.265 29.1597V26.0879H96.4436C93.6633 26.0879 91.389 23.7827 91.389 20.9649V20.0799C91.389 17.262 93.6633 14.9569 96.4436 14.9569H101.265V11.8482C101.244 11.8482 101.225 11.8466 101.205 11.8466H96.5838V11.845Z" fill="black"/>
<path d="M122.873 20.4952C122.873 24.8339 125.98 28.4345 130.059 29.1438V25.6933C127.829 25.0447 126.197 22.9633 126.197 20.4952C126.197 18.0272 127.83 15.9457 130.059 15.2971V11.8466C125.978 12.5559 122.873 16.1581 122.873 20.4952Z" fill="black"/>
<path d="M133.009 11.845V15.2955C135.239 15.9441 136.871 18.0256 136.871 20.4936C136.871 22.9617 135.238 25.0431 133.009 25.6917V29.1422C137.09 28.4329 140.195 24.8307 140.195 20.4936C140.195 16.1565 137.088 12.5543 133.009 11.845Z" fill="black"/>
<path d="M154.154 11.845L150.112 17.7077L146.07 11.845H142.332L148.242 20.4185L142.225 29.1454H145.963L157.893 11.845H154.154Z" fill="black"/>
<path d="M153.842 23.115L151.976 25.8307L154.261 29.1454H158L153.842 23.115Z" fill="black"/>
<path d="M118.009 20.0831C118.671 19.2364 119.073 18.1182 119.073 16.8946V16.6342C119.073 14 117.202 11.8466 114.916 11.8466H106.821V14.9505H114.611C115.614 14.9505 116.433 15.7812 116.433 16.7971V17.3131C116.433 18.3291 115.614 19.1597 114.611 19.1597H106.821V21.8514H115.221C116.224 21.8514 117.043 22.6821 117.043 23.6981V24.2444C117.043 25.2604 116.224 26.0911 115.221 26.0911H106.821V29.1629H115.59C118.066 29.1629 120.093 27.008 120.093 24.3754V24.115C120.093 22.4281 119.259 20.9377 118.009 20.0847V20.0831Z" class="fill-primary" fill="black"/>
<path d="M60.9433 25.4984L65.845 11.7668H62.5856L59.3121 20.9361L60.9433 25.4984Z" fill="black"/>
<path d="M52.7759 11.7668H49.537L55.7469 29.1629H58.9953L52.7759 11.7668Z" fill="black"/>
</svg>
